<svg width="34" height="33" viewBox="0 0 34 33" fill="none" xmlns="http://www.w3.org/2000/svg">
<path fill-rule="evenodd" clip-rule="evenodd" d="M26.2411 21.0932L16.9771 5.66016L14.4049 7.20416C14.9734 8.15121 14.6665 9.37979 13.7194 9.94828L10.2899 12.007C7.86482 13.4627 6.65229 14.1905 6.35115 15.3961C6.05001 16.6017 6.77786 17.8142 8.23356 20.2393L9.2629 21.9541C10.7186 24.3791 11.4465 25.5917 12.6521 25.8928C13.8577 26.194 15.0702 25.4661 17.4952 24.0104L20.9248 21.9517C21.8718 21.3832 23.1004 21.6901 23.6689 22.6372L26.2411 21.0932ZM16.5501 14.6639C17.0236 14.3797 17.1771 13.7654 16.8928 13.2919C16.6086 12.8183 15.9943 12.6649 15.5208 12.9491L11.2338 15.5225C10.7603 15.8067 10.6069 16.421 10.8911 16.8945C11.1754 17.3681 11.7897 17.5215 12.2632 17.2373L16.5501 14.6639ZM19.1235 18.9509C19.597 18.6666 19.7504 18.0523 19.4662 17.5788C19.1819 17.1053 18.5676 16.9518 18.0941 17.2361L13.8072 19.8094C13.3337 20.0937 13.1802 20.708 13.4645 21.1815C13.7487 21.655 14.363 21.8085 14.8365 21.5242L19.1235 18.9509Z" fill="#2B3535"/>
<path d="M26 14C26 14 27.1 13.7376 29.5 14.1376C31.9 14.5376 32.8333 15.9711 33 16.6378" stroke="#2B3535" stroke-linecap="round"/>
<path d="M27 17C27 17 27.6 16.8753 30 17.2753C32.4 17.6753 33.3333 19.1087 33.5 19.7754" stroke="#2B3535" stroke-linecap="round"/>
</svg>
