<svg width="14" height="13" viewBox="0 0 14 13" fill="none" xmlns="http://www.w3.org/2000/svg">
<path d="M5.73043 2.41502C6.21199 1.2145 6.45277 0.614248 6.84395 0.531055C6.94681 0.50918 7.05312 0.50918 7.15598 0.531055C7.54716 0.614248 7.78794 1.2145 8.26949 2.41502C8.54335 3.09773 8.68027 3.43909 8.93648 3.67126C9.00834 3.73638 9.08635 3.79438 9.16941 3.84444C9.46554 4.02293 9.83521 4.05603 10.5746 4.12225C11.8261 4.23433 12.4519 4.29038 12.643 4.64719C12.6826 4.72108 12.7095 4.80109 12.7226 4.88389C12.786 5.28366 12.3259 5.70221 11.4058 6.5393L11.1503 6.77175C10.7202 7.16311 10.5051 7.35878 10.3807 7.60299C10.3061 7.74948 10.256 7.90724 10.2326 8.06996C10.1935 8.34122 10.2565 8.62509 10.3824 9.19283L10.4274 9.39568C10.6533 10.4138 10.7663 10.9229 10.6253 11.1731C10.4986 11.3979 10.2654 11.5418 10.0077 11.5541C9.72078 11.5678 9.31653 11.2384 8.50805 10.5796C7.9754 10.1456 7.70907 9.92855 7.41341 9.84377C7.14322 9.7663 6.85671 9.7663 6.58652 9.84377C6.29086 9.92855 6.02453 10.1456 5.49188 10.5796C4.68339 11.2384 4.27915 11.5678 3.99226 11.5541C3.73456 11.5418 3.50128 11.3979 3.37463 11.1731C3.23364 10.9229 3.34658 10.4138 3.57248 9.39568L3.61749 9.19283C3.74345 8.62509 3.80643 8.34122 3.76735 8.06996C3.7439 7.90724 3.69387 7.74948 3.61924 7.60299C3.49484 7.35878 3.27976 7.16311 2.8496 6.77175L2.59409 6.5393C1.674 5.70221 1.21396 5.28366 1.27731 4.88389C1.29043 4.80109 1.31734 4.72108 1.35692 4.64719C1.54802 4.29038 2.17381 4.23433 3.42538 4.12225C4.16472 4.05603 4.53439 4.02293 4.83051 3.84444C4.91357 3.79438 4.99158 3.73638 5.06345 3.67126C5.31966 3.43909 5.45658 3.09773 5.73043 2.41502Z" fill="#D8C410" stroke="#5B5B5B"/>
</svg>
