<svg width="24" height="24" viewBox="0 0 24 24" fill="none" xmlns="http://www.w3.org/2000/svg">
<circle cx="12" cy="12" r="9" fill="#7E869E" fill-opacity="0.25" stroke="#222222" stroke-width="1.2"/>
<path fill-rule="evenodd" clip-rule="evenodd" d="M15.1297 10.8702L16 9.99991C16.5523 9.44762 16.5523 8.55219 16 7.99991C15.4477 7.44762 14.5523 7.44762 14 7.99991L13.1177 8.8822C13.6169 9.69441 14.3065 10.3779 15.1297 10.8702ZM11.674 10.3259L9.35637 12.6435C8.93131 13.0686 8.71878 13.2811 8.57905 13.5422C8.43931 13.8033 8.38037 14.098 8.26248 14.6875L8.14708 15.2645C8.08056 15.5971 8.0473 15.7634 8.14191 15.858C8.23651 15.9526 8.40282 15.9193 8.73543 15.8528L9.31241 15.7374L9.31242 15.7374C9.90187 15.6195 10.1966 15.5606 10.4577 15.4209C10.7188 15.2811 10.9313 15.0686 11.3563 14.6436L11.3564 14.6435L11.3564 14.6435L13.6829 12.317C12.898 11.7778 12.2179 11.1026 11.674 10.3259Z" fill="#222222"/>
</svg>
