<svg width="25" height="24" viewBox="0 0 25 24" fill="none" xmlns="http://www.w3.org/2000/svg">
<path fill-rule="evenodd" clip-rule="evenodd" d="M8.87905 2.66859L12.5686 2.08881C15.7892 1.58272 17.3995 1.32967 18.4497 2.22779C19.5 3.12591 19.5 4.75596 19.5 8.01607V10.9996H13.5806L16.2809 7.62428L14.7191 6.37489L10.7191 11.3749L10.2194 11.9996L10.7191 12.6243L14.7191 17.6243L16.2809 16.3749L13.5806 12.9996H19.5V15.9831C19.5 19.2432 19.5 20.8733 18.4497 21.7714C17.3995 22.6695 15.7892 22.4165 12.5686 21.9104L8.87905 21.3306C7.26632 21.0771 6.45995 20.9504 5.97998 20.3891C5.5 19.8279 5.5 19.0116 5.5 17.3791V6.6201C5.5 4.98758 5.5 4.17132 5.97998 3.61003C6.45995 3.04874 7.26632 2.92202 8.87905 2.66859Z" fill="#F7F7F7"/>
</svg>
