<svg width="34" height="34" viewBox="0 0 34 34" fill="none" xmlns="http://www.w3.org/2000/svg">
<path d="M27.8333 9.91659C27.8333 11.2052 26.7886 12.2499 25.5 12.2499C24.2113 12.2499 23.1666 11.2052 23.1666 9.91659C23.1666 8.62792 24.2113 7.58325 25.5 7.58325C26.7886 7.58325 27.8333 8.62792 27.8333 9.91659Z" stroke="#222222" stroke-linecap="round"/>
<path d="M6.49478 24.7917H23.2551C23.9023 24.7917 24.2816 24.0631 23.9104 23.5329L15.5303 11.5613C15.2118 11.1063 14.538 11.1063 14.2195 11.5613L5.83939 23.5329C5.46824 24.0631 5.84756 24.7917 6.49478 24.7917Z" stroke="#222222" stroke-linecap="round"/>
<path d="M14.8749 24.7916H27.5982C28.2266 24.7916 28.6096 24.1004 28.2766 23.5676L22.6367 14.5437C22.3233 14.0424 21.5932 14.0424 21.2799 14.5437L19.6341 17.177" stroke="#222222" stroke-linecap="round"/>
</svg>
