<svg width="25" height="24" viewBox="0 0 25 24" fill="none" xmlns="http://www.w3.org/2000/svg">
<path fill-rule="evenodd" clip-rule="evenodd" d="M21.5001 6H3.50006V9C4.60463 9 5.50006 9.89543 5.50006 11V15C5.50006 17.8284 5.50006 19.2426 6.37874 20.1213C7.25742 21 8.67163 21 11.5001 21H13.5001C16.3285 21 17.7427 21 18.6214 20.1213C19.5001 19.2426 19.5001 17.8284 19.5001 15V11C19.5001 9.89543 20.3955 9 21.5001 9V6ZM11.0001 11C11.0001 10.4477 10.5523 10 10.0001 10C9.44778 10 9.00006 10.4477 9.00006 11V16C9.00006 16.5523 9.44778 17 10.0001 17C10.5523 17 11.0001 16.5523 11.0001 16V11ZM16.0001 11C16.0001 10.4477 15.5523 10 15.0001 10C14.4478 10 14.0001 10.4477 14.0001 11V16C14.0001 16.5523 14.4478 17 15.0001 17C15.5523 17 16.0001 16.5523 16.0001 16V11Z" fill="#F7F7F7"/>
<path d="M10.5681 3.37059C10.6821 3.26427 10.9332 3.17033 11.2825 3.10332C11.6318 3.03632 12.0597 3 12.5 3C12.9403 3 13.3682 3.03632 13.7175 3.10332C14.0668 3.17033 14.3179 3.26427 14.4319 3.37059" stroke="#F7F7F7" stroke-width="2" stroke-linecap="round"/>
</svg>
