<svg width="39" height="39" viewBox="0 0 39 39" fill="none" xmlns="http://www.w3.org/2000/svg">
<path d="M31.1471 11.3317C31.1471 12.5283 30.1771 13.4984 28.9805 13.4984C27.7839 13.4984 26.8138 12.5283 26.8138 11.3317C26.8138 10.1351 27.7839 9.16504 28.9805 9.16504C30.1771 9.16504 31.1471 10.1351 31.1471 11.3317Z" stroke="#33363F" stroke-width="2" stroke-linecap="round"/>
<path d="M7.41648 28.7485H25.2111C26.158 28.7485 26.7319 27.7031 26.2235 26.9042L17.3262 12.9227C16.8547 12.1817 15.773 12.1817 15.3014 12.9227L6.40408 26.9042C5.89571 27.7031 6.46957 28.7485 7.41648 28.7485Z" fill="#33363F"/>
<path d="M18.556 28.7484H33.0716C34.03 28.7484 34.6017 27.6802 34.0701 26.8828L26.8123 15.9961C26.3373 15.2836 25.2903 15.2836 24.8154 15.9961L17.5576 26.8828C17.0259 27.6802 17.5976 28.7484 18.556 28.7484Z" fill="#33363F"/>
</svg>
