<svg width="25" height="24" viewBox="0 0 25 24" fill="none" xmlns="http://www.w3.org/2000/svg">
<path d="M15.5 20H6.7C5.57989 20 5.01984 20 4.59202 19.782C4.21569 19.5903 3.90973 19.2843 3.71799 18.908C3.5 18.4802 3.5 17.9201 3.5 16.8V7.2C3.5 6.07989 3.5 5.51984 3.71799 5.09202C3.90973 4.71569 4.21569 4.40973 4.59202 4.21799C5.01984 4 5.5799 4 6.7 4H8.17452C8.6637 4 8.90829 4 9.13846 4.05526C9.34254 4.10425 9.53763 4.18506 9.71657 4.29472C9.9184 4.4184 10.0914 4.59135 10.4373 4.93726L10.5627 5.06274C10.9086 5.40865 11.0816 5.5816 11.2834 5.70528C11.4624 5.81494 11.6575 5.89575 11.8615 5.94474C12.0917 6 12.3363 6 12.8255 6H14.3C15.4201 6 15.9802 6 16.408 6.21799C16.7843 6.40973 17.0903 6.71569 17.282 7.09202C17.5 7.51984 17.5 8.07989 17.5 9.2V9.5" stroke="#F7F7F7" stroke-width="2" stroke-linecap="round"/>
<path d="M5.81584 12.2805C6.06132 11.4622 6.18406 11.0531 6.42696 10.7498C6.64139 10.482 6.92108 10.2739 7.23915 10.1455C7.59946 10 8.0266 10 8.88087 10H17.1991C18.6567 10 19.3856 10 19.872 10.3041C20.2981 10.5704 20.6083 10.9873 20.7409 11.4719C20.8924 12.0252 20.683 12.7233 20.2641 14.1195L19.1842 17.7191C18.9387 18.5374 18.8159 18.9465 18.573 19.2498C18.3586 19.5176 18.0789 19.7257 17.7608 19.8541C17.4005 19.9996 16.9734 19.9996 16.1191 19.9996H5.65047C4.92163 19.9996 4.55721 19.9996 4.31398 19.8476C4.10096 19.7144 3.94587 19.5059 3.87954 19.2636C3.8038 18.987 3.90852 18.6379 4.11796 17.9398L5.81584 12.2805Z" stroke="#F7F7F7" stroke-width="2"/>
<path d="M9.5 15L15.5 15" stroke="#F7F7F7" stroke-width="2" stroke-linecap="round"/>
</svg>
