<svg width="39" height="39" viewBox="0 0 39 39" fill="none" xmlns="http://www.w3.org/2000/svg">
<path fill-rule="evenodd" clip-rule="evenodd" d="M21.0638 26.7742V22.4151H14.4417C11.8819 22.4151 9.71157 24.2974 9.34956 26.8315C8.86989 30.1891 11.7142 33.0838 15.0797 32.6631L15.9626 32.5527C18.8769 32.1885 21.0638 29.7111 21.0638 26.7742Z" fill="#222222"/>
<path d="M21.0638 12.9151V11.9469C21.0638 9.38452 21.0638 8.10333 21.8142 7.21747C22.5647 6.33161 23.8284 6.12099 26.3559 5.69974L30.0874 5.07783C30.3024 5.04199 30.41 5.02407 30.468 5.0869C30.526 5.14974 30.4995 5.2555 30.4467 5.46699L29.0291 11.1373C29.0055 11.2318 28.9936 11.2791 28.9604 11.3107C28.9272 11.3424 28.8795 11.352 28.784 11.3711L21.0638 12.9151ZM21.0638 12.9151V22.4151M21.0638 22.4151V26.7742C21.0638 29.7111 18.8769 32.1885 15.9626 32.5527L15.0797 32.6631C11.7142 33.0838 8.86989 30.1891 9.34956 26.8315C9.71157 24.2974 11.8819 22.4151 14.4417 22.4151H21.0638Z" stroke="#222222" stroke-width="2"/>
</svg>
