<svg width="25" height="24" viewBox="0 0 25 24" fill="none" xmlns="http://www.w3.org/2000/svg">
<path fill-rule="evenodd" clip-rule="evenodd" d="M12.5 1.48462C11.8426 1.48462 11.2706 1.9062 10.1267 2.74936L8.40579 4.01781C8.22558 4.15064 8.13548 4.21705 8.03874 4.27291C7.94201 4.32876 7.83944 4.37358 7.6343 4.46323L5.67533 5.31935C4.37318 5.88843 3.72211 6.17297 3.39339 6.74233C3.06467 7.31168 3.14379 8.0178 3.30203 9.43003L3.54009 11.5546C3.56502 11.7771 3.57748 11.8883 3.57748 12C3.57748 12.1117 3.56502 12.223 3.54009 12.4454L3.30203 14.57C3.14379 15.9823 3.06467 16.6884 3.39339 17.2577C3.72211 17.8271 4.37318 18.1116 5.67533 18.6807L7.6343 19.5368C7.83944 19.6265 7.94201 19.6713 8.03874 19.7272C8.13548 19.783 8.22558 19.8494 8.40579 19.9822L10.1267 21.2507C11.2706 22.0939 11.8426 22.5154 12.5 22.5154C13.1574 22.5154 13.7294 22.0939 14.8733 21.2507L14.8733 21.2507L16.5942 19.9822C16.7744 19.8494 16.8645 19.783 16.9613 19.7272C17.058 19.6713 17.1606 19.6265 17.3657 19.5368L19.3247 18.6807C20.6268 18.1116 21.2779 17.8271 21.6066 17.2577C21.9353 16.6884 21.8562 15.9823 21.698 14.57L21.4599 12.4454L21.4599 12.4454C21.435 12.223 21.4225 12.1117 21.4225 12C21.4225 11.8883 21.435 11.7771 21.4599 11.5547L21.4599 11.5546L21.698 9.43004C21.8562 8.0178 21.9353 7.31168 21.6066 6.74233C21.2779 6.17297 20.6268 5.88843 19.3247 5.31935L17.3657 4.46323L17.3657 4.46323C17.1606 4.37358 17.058 4.32876 16.9613 4.27291C16.8645 4.21705 16.7744 4.15064 16.5942 4.01781L14.8733 2.74936C13.7294 1.9062 13.1574 1.48462 12.5 1.48462ZM12.5 16C14.7091 16 16.5 14.2092 16.5 12C16.5 9.79089 14.7091 8.00003 12.5 8.00003C10.2909 8.00003 8.5 9.79089 8.5 12C8.5 14.2092 10.2909 16 12.5 16Z" fill="#F7F7F7"/>
</svg>
