<svg width="29" height="29" viewBox="0 0 29 29" fill="none" xmlns="http://www.w3.org/2000/svg">
<path fill-rule="evenodd" clip-rule="evenodd" d="M14.7084 2.41669V8.87502L14.7084 8.92943C14.7083 9.3535 14.7082 9.76562 14.7539 10.1055C14.8054 10.4887 14.9309 10.926 15.2942 11.2892C15.6574 11.6524 16.0947 11.778 16.4779 11.8295C16.8178 11.8752 17.2299 11.8751 17.6539 11.875H17.6539H17.654H17.654L17.7084 11.875H24.1667V19.3334C24.1667 22.751 24.1667 24.4599 23.105 25.5216C22.0432 26.5834 20.3344 26.5834 16.9167 26.5834H12.0834C8.66569 26.5834 6.95685 26.5834 5.89511 25.5216C4.83337 24.4599 4.83337 22.751 4.83337 19.3334V9.66669C4.83337 6.249 4.83337 4.54016 5.89511 3.47842C6.95685 2.41669 8.66569 2.41669 12.0834 2.41669H14.7084ZM16.7084 2.41865V8.87502C16.7084 9.37469 16.7105 9.64885 16.7361 9.83904L16.7371 9.84633L16.7443 9.84733C16.9345 9.8729 17.2087 9.87502 17.7084 9.87502H24.1647C24.1578 9.2575 24.1262 8.88089 23.9827 8.53455C23.7988 8.09044 23.4495 7.7412 22.7511 7.04272L22.7511 7.0427L19.5407 3.83234C18.8422 3.13385 18.493 2.7846 18.0488 2.60064C17.7025 2.45719 17.3259 2.4256 16.7084 2.41865ZM9.87504 15.7084C9.87504 15.1561 10.3228 14.7084 10.875 14.7084L18.125 14.7084C18.6773 14.7084 19.125 15.1561 19.125 15.7084C19.125 16.2606 18.6773 16.7084 18.125 16.7084L10.875 16.7084C10.3228 16.7084 9.87504 16.2606 9.87504 15.7084ZM10.875 19.5417C10.3228 19.5417 9.87504 19.9894 9.87504 20.5417C9.87504 21.094 10.3228 21.5417 10.875 21.5417H15.7084C16.2607 21.5417 16.7084 21.094 16.7084 20.5417C16.7084 19.9894 16.2607 19.5417 15.7084 19.5417H10.875Z" fill="#F7F7F7"/>
</svg>
