<svg width="30" height="31" viewBox="0 0 30 31" fill="none" xmlns="http://www.w3.org/2000/svg">
<path d="M23.75 18.4781V14.9781C23.75 13.0925 23.75 12.1497 23.1642 11.5639C22.5784 10.9781 21.6356 10.9781 19.75 10.9781H16.6569C15.8394 10.9781 15.4306 10.9781 15.0631 10.8259C14.6955 10.6737 14.4065 10.3846 13.8284 9.80658L12.4216 8.39972C11.8435 7.82166 11.5545 7.53263 11.1869 7.38039C10.8194 7.22815 10.4106 7.22815 9.59315 7.22815H7.75C5.86438 7.22815 4.92157 7.22815 4.33579 7.81394C3.75 8.39972 3.75 9.34253 3.75 11.2281V20.7281C3.75 22.6138 3.75 23.5566 4.33579 24.1424C4.92157 24.7281 5.86438 24.7281 7.75 24.7281H17.5" stroke="#33363F" stroke-width="2"/>
<path d="M20 24.7281H23.75M23.75 24.7281H27.5M23.75 24.7281V28.4781M23.75 24.7281V20.9781" stroke="#33363F" stroke-width="2"/>
</svg>
