<svg width="16" height="16" viewBox="0 0 16 16" fill="none" xmlns="http://www.w3.org/2000/svg">
<path fill-rule="evenodd" clip-rule="evenodd" d="M11.7142 6.95242L12.6667 5.99999C13.4031 5.26361 13.4031 4.0697 12.6667 3.33332C11.9303 2.59694 10.7364 2.59694 10 3.33332L9.03169 4.30165C9.66123 5.4118 10.5887 6.33195 11.7142 6.95242ZM7.57683 5.75651L3.52306 9.81028L3.52305 9.81029C3.098 10.2353 2.88547 10.4479 2.74574 10.709C2.606 10.9701 2.54706 11.2648 2.42917 11.8542L2.1471 13.2646C2.08058 13.5972 2.04732 13.7635 2.14193 13.8581C2.23654 13.9527 2.40284 13.9194 2.73545 13.8529L4.14577 13.5708C4.73522 13.4529 5.02994 13.394 5.29104 13.2543C5.55214 13.1145 5.76467 12.902 6.18973 12.4769L10.2556 8.41108C9.18143 7.72543 8.26873 6.81881 7.57683 5.75651Z" fill="#222222"/>
</svg>
