<svg width="47" height="47" viewBox="0 0 47 47" fill="none" xmlns="http://www.w3.org/2000/svg">
<path fill-rule="evenodd" clip-rule="evenodd" d="M23.5 3.375C28.72 3.375 33.174 6.62786 34.9574 11.2083H35.25C39.8754 11.2083 43.625 14.9579 43.625 19.5833C43.625 24.2087 39.8754 27.9583 35.25 27.9583H32.7451L27.7451 22.9583H35.25C37.114 22.9583 38.625 21.4473 38.625 19.5833C38.625 17.7194 37.114 16.2083 35.25 16.2083H34.7306L34.6649 16.2084H34.6649C34.355 16.2086 33.9608 16.2088 33.6139 16.1738C33.2074 16.1328 32.5723 16.0221 31.9492 15.5947C31.2782 15.1345 30.9418 14.5112 30.7776 14.1766C30.6176 13.8504 30.4644 13.4534 30.3306 13.1064L30.3055 13.0413C29.2499 10.3074 26.5975 8.375 23.5 8.375C20.4025 8.375 17.7501 10.3074 16.6945 13.0413L16.6694 13.1064L16.6694 13.1064C16.5356 13.4535 16.3824 13.8504 16.2224 14.1766C16.0582 14.5112 15.7218 15.1345 15.0508 15.5947C14.4277 16.0221 13.7926 16.1328 13.3861 16.1738C13.0392 16.2088 12.645 16.2086 12.3351 16.2084H12.3351L12.2694 16.2083H9.875C9.04657 16.2083 8.375 16.8799 8.375 17.7083V21.4583C8.375 22.2868 9.04657 22.9583 9.875 22.9583H19.2549L14.2549 27.9583H9.875C6.28514 27.9583 3.375 25.0482 3.375 21.4583V17.7083C3.375 14.1185 6.28514 11.2083 9.875 11.2083H12.0426C13.826 6.62786 18.28 3.375 23.5 3.375ZM19.9118 27.9583L21.5 26.3701V27.9583H19.9118ZM25.5 27.9583V26.3701L27.0882 27.9583H25.5ZM35.2726 11.9863L35.2705 11.9823C35.2719 11.985 35.2726 11.9863 35.2726 11.9863ZM34.1168 11.1991C34.1154 11.199 34.1147 11.1989 34.1147 11.1989L34.1157 11.199L34.1168 11.1991Z" fill="#F7F7F7"/>
<path d="M23.5 23.5L24.9143 22.0858L23.5 20.6716L22.0858 22.0858L23.5 23.5ZM21.5 41.125C21.5 42.2296 22.3955 43.125 23.5 43.125C24.6046 43.125 25.5 42.2296 25.5 41.125L21.5 41.125ZM32.7476 29.9191L24.9143 22.0858L22.0858 24.9142L29.9192 32.7475L32.7476 29.9191ZM22.0858 22.0858L14.2525 29.9191L17.0809 32.7475L24.9143 24.9142L22.0858 22.0858ZM21.5 23.5L21.5 41.125L25.5 41.125L25.5 23.5L21.5 23.5Z" fill="#F7F7F7"/>
</svg>
