<svg width="39" height="39" viewBox="0 0 39 39" fill="none" xmlns="http://www.w3.org/2000/svg">
<path d="M21.3354 4.99841H14.7305C11.7449 4.99841 10.2521 4.99841 9.32462 5.92591C8.39713 6.8534 8.39713 8.34618 8.39713 11.3317V27.1651C8.39713 30.1506 8.39713 31.6434 9.32462 32.5709C10.2521 33.4984 11.7449 33.4984 14.7305 33.4984H24.2305C27.216 33.4984 28.7088 33.4984 29.6363 32.5709C30.5638 31.6434 30.5638 30.1506 30.5638 27.1651V14.2268C30.5638 13.5796 30.5638 13.256 30.4433 12.965C30.3227 12.674 30.0939 12.4452 29.6363 11.9876L23.5746 5.92591C23.117 5.46828 22.8882 5.23946 22.5972 5.11894C22.3062 4.99841 21.9826 4.99841 21.3354 4.99841Z" stroke="#33363F" stroke-width="2"/>
<path d="M14.7305 20.8318L24.2305 20.8318" stroke="#33363F" stroke-width="2" stroke-linecap="round"/>
<path d="M14.7305 27.165L21.0638 27.165" stroke="#33363F" stroke-width="2" stroke-linecap="round"/>
<path d="M21.0638 4.99841V11.3317C21.0638 12.8245 21.0638 13.5709 21.5276 14.0347C21.9913 14.4984 22.7377 14.4984 24.2305 14.4984H30.5638" stroke="#33363F" stroke-width="2"/>
</svg>
