<svg width="29" height="29" viewBox="0 0 29 29" fill="none" xmlns="http://www.w3.org/2000/svg">
<path fill-rule="evenodd" clip-rule="evenodd" d="M22.9583 19.2735V16.9166H19.6384C19.3551 16.9166 19.2134 16.9166 19.0941 16.9285C17.9486 17.0424 17.0425 17.9486 16.9285 19.0941C16.9166 19.2134 16.9166 19.3551 16.9166 19.6384C16.9166 19.9764 16.9166 20.1454 16.9317 20.2796C17.0776 21.5818 18.2348 22.5305 19.5404 22.4182C19.6749 22.4067 19.8406 22.3735 20.1721 22.3072L20.53 22.2356C20.9897 22.1437 21.2195 22.0977 21.4135 22.0227C22.2049 21.7166 22.7778 21.0178 22.9228 20.1816C22.9583 19.9767 22.9583 19.7423 22.9583 19.2735ZM10.875 21.6902V19.3333H7.55503C7.27174 19.3333 7.13009 19.3333 7.01079 19.3452C5.86526 19.4591 4.95912 20.3653 4.84518 21.5108C4.83331 21.6301 4.83331 21.7717 4.83331 22.055C4.83331 22.3931 4.83331 22.5621 4.84835 22.6962C4.99428 23.9985 6.15149 24.9472 7.45708 24.8349C7.59154 24.8233 7.75741 24.7902 8.0888 24.7239L8.44658 24.6523C8.90631 24.5604 9.13617 24.5144 9.33012 24.4394C10.1216 24.1333 10.6945 23.4344 10.8395 22.5983C10.875 22.3934 10.875 22.159 10.875 21.6902Z" fill="#F7F7F7"/>
<path d="M10.875 19.3333V13.2916M10.875 19.3333V21.6902M10.875 19.3333H7.55503M22.9583 16.9166V10.875M22.9583 16.9166V19.2735M22.9583 16.9166H19.6384M22.9583 10.875L10.875 13.2916M22.9583 10.875V10.729M10.875 13.2916V11.2124M10.875 11.2124C10.875 9.31558 10.875 8.36719 11.4227 7.69903C11.9705 7.03088 12.9005 6.84488 14.7604 6.47289M10.875 11.2124V10.5292C10.875 8.95944 10.875 8.17457 11.3283 7.62161C11.7816 7.06865 12.5512 6.91473 14.0905 6.60687L14.7604 6.47289M10.875 11.2124V21.6902M14.7604 6.47289L17.1771 5.98956M17.1771 5.98956C19.8519 5.4546 21.1893 5.18712 22.0738 5.91226C22.9583 6.6374 22.9583 8.00128 22.9583 10.729M17.1771 5.98956L18.1738 5.79021C20.3875 5.34748 21.4943 5.12612 22.2263 5.72624C22.9583 6.32635 22.9583 7.45508 22.9583 9.71253V10.729M22.9583 19.2735C22.9583 19.7423 22.9583 19.9767 22.9228 20.1816C22.7778 21.0178 22.2049 21.7166 21.4135 22.0227C21.2195 22.0977 20.9897 22.1437 20.53 22.2356M22.9583 19.2735V19.2735C22.9583 20.0675 22.9583 20.4645 22.8367 20.7971C22.6813 21.2221 22.3864 21.5819 22.0001 21.8176C21.6978 22.0021 21.3085 22.0799 20.53 22.2356V22.2356M20.53 22.2356L20.1721 22.3072M20.1721 22.3072C19.8406 22.3735 19.6749 22.4067 19.5404 22.4182C18.2348 22.5305 17.0776 21.5818 16.9317 20.2796C16.9166 20.1454 16.9166 19.9764 16.9166 19.6384M20.1721 22.3072V22.3072C19.3863 22.4644 18.9934 22.543 18.674 22.5039C17.9056 22.41 17.2604 21.8811 17.0176 21.146C16.9166 20.8405 16.9166 20.4398 16.9166 19.6384V19.6384M16.9166 19.6384C16.9166 19.3551 16.9166 19.2134 16.9285 19.0941C17.0425 17.9486 17.9486 17.0424 19.0941 16.9285C19.2134 16.9166 19.3551 16.9166 19.6384 16.9166M16.9166 19.6384V19.6384C16.9166 18.967 16.9166 18.6313 16.9964 18.3574C17.1876 17.7009 17.7009 17.1876 18.3574 16.9964C18.6313 16.9166 18.967 16.9166 19.6384 16.9166V16.9166M10.875 21.6902C10.875 22.159 10.875 22.3934 10.8395 22.5983C10.6945 23.4344 10.1216 24.1333 9.33012 24.4394C9.13617 24.5144 8.90631 24.5604 8.44658 24.6523M10.875 21.6902V21.6902C10.875 22.4842 10.875 22.8812 10.7534 23.2138C10.598 23.6388 10.3031 23.9986 9.91677 24.2343C9.61447 24.4187 9.22517 24.4966 8.44658 24.6523V24.6523M8.44658 24.6523L8.0888 24.7239M8.0888 24.7239C7.75741 24.7902 7.59154 24.8233 7.45708 24.8349C6.15149 24.9472 4.99428 23.9985 4.84835 22.6962C4.83331 22.5621 4.83331 22.3931 4.83331 22.055M8.0888 24.7239V24.7239C7.30295 24.8811 6.91003 24.9596 6.59064 24.9206C5.82223 24.8267 5.17704 24.2977 4.93423 23.5627C4.83331 23.2571 4.83331 22.8564 4.83331 22.055V22.055M4.83331 22.055C4.83331 21.7717 4.83331 21.6301 4.84518 21.5108C4.95912 20.3653 5.86526 19.4591 7.01079 19.3452C7.13009 19.3333 7.27174 19.3333 7.55503 19.3333M4.83331 22.055V22.055C4.83331 21.3837 4.83331 21.048 4.9131 20.774C5.1043 20.1176 5.61759 19.6043 6.27404 19.4131C6.54799 19.3333 6.88367 19.3333 7.55503 19.3333V19.3333" stroke="#F7F7F7" stroke-width="2"/>
</svg>
