<svg width="31" height="31" viewBox="0 0 31 31" fill="none" xmlns="http://www.w3.org/2000/svg">
<path d="M5.48907 11.2281C5.48907 9.34253 5.48907 8.39972 6.07486 7.81394C6.66065 7.22815 7.60346 7.22815 9.48907 7.22815H11.3322C12.1497 7.22815 12.5585 7.22815 12.926 7.38039C13.2936 7.53263 13.5826 7.82166 14.1606 8.39972L15.5675 9.80658C16.1456 10.3846 16.4346 10.6737 16.8021 10.8259C17.1697 10.9781 17.5784 10.9781 18.3959 10.9781H21.4891C23.3747 10.9781 24.3175 10.9781 24.9033 11.5639C25.4891 12.1497 25.4891 13.0925 25.4891 14.9781V20.7281C25.4891 22.6138 25.4891 23.5566 24.9033 24.1424C24.3175 24.7281 23.3747 24.7281 21.4891 24.7281H9.48907C7.60346 24.7281 6.66065 24.7281 6.07486 24.1424C5.48907 23.5566 5.48907 22.6138 5.48907 20.7281V11.2281Z" stroke="#33363F" stroke-width="2"/>
</svg>
