<svg width="20" height="6" viewBox="0 0 20 6" fill="none" xmlns="http://www.w3.org/2000/svg">
<path d="M2.37395 5.21033C1.75298 5.21033 1.23217 5 0.811516 4.57934C0.390859 4.15869 0.180531 3.63788 0.180531 3.01691C0.180531 2.39594 0.390859 1.87512 0.811516 1.45447C1.23217 1.03381 1.75298 0.823484 2.37395 0.823484C2.97489 0.823484 3.48569 1.03381 3.90634 1.45447C4.327 1.87512 4.53733 2.39594 4.53733 3.01691C4.53733 3.63788 4.327 4.15869 3.90634 4.57934C3.48569 5 2.97489 5.21033 2.37395 5.21033ZM9.62159 5.21033C9.00062 5.21033 8.47981 5 8.05915 4.57934C7.63849 4.15869 7.42817 3.63788 7.42817 3.01691C7.42817 2.39594 7.63849 1.87512 8.05915 1.45447C8.47981 1.03381 9.00062 0.823484 9.62159 0.823484C10.2225 0.823484 10.7333 1.03381 11.154 1.45447C11.5746 1.87512 11.785 2.39594 11.785 3.01691C11.785 3.63788 11.5746 4.15869 11.154 4.57934C10.7333 5 10.2225 5.21033 9.62159 5.21033ZM16.8692 5.21033C16.2483 5.21033 15.7274 5 15.3068 4.57934C14.8861 4.15869 14.6758 3.63788 14.6758 3.01691C14.6758 2.39594 14.8861 1.87512 15.3068 1.45447C15.7274 1.03381 16.2483 0.823484 16.8692 0.823484C17.4702 0.823484 17.981 1.03381 18.4016 1.45447C18.8223 1.87512 19.0326 2.39594 19.0326 3.01691C19.0326 3.63788 18.8223 4.15869 18.4016 4.57934C17.981 5 17.4702 5.21033 16.8692 5.21033Z" fill="#2B3535"/>
</svg>
