<svg width="29" height="29" viewBox="0 0 29 29" fill="none" xmlns="http://www.w3.org/2000/svg">
<path fill-rule="evenodd" clip-rule="evenodd" d="M5.86537 9.66665C4.62805 9.66665 3.625 10.6697 3.625 11.907V18.1666C3.625 20.9951 3.625 22.4093 4.50368 23.288C5.38236 24.1666 6.79657 24.1666 9.625 24.1666H19.375C22.2034 24.1666 23.6176 24.1666 24.4963 23.288C25.375 22.4093 25.375 20.9951 25.375 18.1666V11.907C25.375 10.6697 24.372 9.66665 23.1346 9.66665C22.286 9.66665 21.5103 9.1872 21.1308 8.4282L20.1389 6.44442C19.8945 5.95565 19.7723 5.71126 19.6051 5.5194C19.3399 5.21509 18.9889 4.99813 18.5981 4.89705C18.3518 4.83331 18.0785 4.83331 17.5321 4.83331H11.4679C10.9215 4.83331 10.6482 4.83331 10.4019 4.89705C10.0111 4.99813 9.66005 5.21509 9.39488 5.5194C9.22769 5.71126 9.1055 5.95565 8.86111 6.44443L7.86922 8.4282C7.48972 9.1872 6.71396 9.66665 5.86537 9.66665ZM17.3333 15.7083C17.3333 17.2731 16.0648 18.5416 14.5 18.5416C12.9352 18.5416 11.6667 17.2731 11.6667 15.7083C11.6667 14.1435 12.9352 12.875 14.5 12.875C16.0648 12.875 17.3333 14.1435 17.3333 15.7083ZM19.3333 15.7083C19.3333 18.3777 17.1694 20.5416 14.5 20.5416C11.8306 20.5416 9.66667 18.3777 9.66667 15.7083C9.66667 13.0389 11.8306 10.875 14.5 10.875C17.1694 10.875 19.3333 13.0389 19.3333 15.7083Z" fill="#F7F7F7"/>
</svg>
