<svg width="179" height="62" viewBox="0 0 179 62" fill="none" xmlns="http://www.w3.org/2000/svg">
<path d="M6.16927 42.4V49.5301C6.16927 50.2312 6.30247 50.715 6.56889 50.9814C6.8353 51.2478 7.30504 51.381 7.97809 51.381H9.32419V52.643H7.74673C6.70911 52.643 5.9379 52.4046 5.43312 51.9279C4.92833 51.4371 4.67594 50.6378 4.67594 49.5301V42.4H3.07744V41.1591H4.67594V38.2776H6.16927V41.1591H9.32419V42.4H6.16927ZM28.3472 46.3121C28.3472 46.8169 28.3332 47.2025 28.3052 47.4689H18.7773C18.8194 48.3383 19.0297 49.0814 19.4083 49.6984C19.7869 50.3153 20.2846 50.7851 20.9016 51.1076C21.5186 51.4161 22.1916 51.5703 22.9208 51.5703C23.8742 51.5703 24.6735 51.3389 25.3185 50.8762C25.9775 50.4135 26.4122 49.7895 26.6225 49.0043H28.179C27.8985 50.126 27.2956 51.0445 26.3701 51.7596C25.4587 52.4607 24.3089 52.8112 22.9208 52.8112C21.8411 52.8112 20.8736 52.5729 20.0182 52.0961C19.1629 51.6054 18.4898 50.9183 17.9991 50.0349C17.5223 49.1375 17.284 48.0929 17.284 46.901C17.284 45.7092 17.5223 44.6645 17.9991 43.7671C18.4758 42.8697 19.1419 42.1827 19.9972 41.7059C20.8525 41.2292 21.827 40.9908 22.9208 40.9908C24.0145 40.9908 24.9679 41.2292 25.7812 41.7059C26.6085 42.1827 27.2395 42.8277 27.6742 43.6409C28.1229 44.4402 28.3472 45.3306 28.3472 46.3121ZM26.8539 46.27C26.8679 45.4147 26.6926 44.6856 26.3281 44.0826C25.9775 43.4797 25.4938 43.024 24.8768 42.7155C24.2598 42.407 23.5868 42.2528 22.8577 42.2528C21.7639 42.2528 20.8315 42.6033 20.0603 43.3044C19.2891 44.0055 18.8614 44.994 18.7773 46.27H26.8539ZM38.7179 37.0787V52.643H37.2456V37.0787H38.7179ZM58.6468 46.3121C58.6468 46.8169 58.6328 47.2025 58.6047 47.4689H49.0769C49.1189 48.3383 49.3293 49.0814 49.7078 49.6984C50.0864 50.3153 50.5842 50.7851 51.2012 51.1076C51.8181 51.4161 52.4912 51.5703 53.2203 51.5703C54.1738 51.5703 54.9731 51.3389 55.6181 50.8762C56.2771 50.4135 56.7118 49.7895 56.9221 49.0043H58.4785C58.1981 50.126 57.5951 51.0445 56.6697 51.7596C55.7583 52.4607 54.6085 52.8112 53.2203 52.8112C52.1406 52.8112 51.1731 52.5729 50.3178 52.0961C49.4625 51.6054 48.7894 50.9183 48.2986 50.0349C47.8219 49.1375 47.5835 48.0929 47.5835 46.901C47.5835 45.7092 47.8219 44.6645 48.2986 43.7671C48.7754 42.8697 49.4414 42.1827 50.2968 41.7059C51.1521 41.2292 52.1266 40.9908 53.2203 40.9908C54.314 40.9908 55.2675 41.2292 56.0808 41.7059C56.9081 42.1827 57.5391 42.8277 57.9737 43.6409C58.4224 44.4402 58.6468 45.3306 58.6468 46.3121ZM57.1535 46.27C57.1675 45.4147 56.9922 44.6856 56.6276 44.0826C56.2771 43.4797 55.7933 43.024 55.1764 42.7155C54.5594 42.407 53.8864 42.2528 53.1572 42.2528C52.0635 42.2528 51.1311 42.6033 50.3599 43.3044C49.5887 44.0055 49.161 44.994 49.0769 46.27H57.1535ZM78.8485 45.2815C78.8485 43.8372 79.164 42.5472 79.795 41.4115C80.4259 40.2617 81.2883 39.3713 82.382 38.7403C83.4757 38.0953 84.6956 37.7728 86.0417 37.7728C87.6823 37.7728 89.0844 38.1654 90.2483 38.9506C91.4261 39.7218 92.2814 40.8155 92.8143 42.2317H91.0896C90.6689 41.2362 90.0239 40.458 89.1546 39.8971C88.2992 39.3362 87.2616 39.0558 86.0417 39.0558C84.962 39.0558 83.9875 39.3082 83.1181 39.813C82.2628 40.3177 81.5898 41.0469 81.099 42.0004C80.6082 42.9398 80.3628 44.0335 80.3628 45.2815C80.3628 46.5294 80.6082 47.6231 81.099 48.5626C81.5898 49.5021 82.2628 50.2242 83.1181 50.729C83.9875 51.2338 84.962 51.4862 86.0417 51.4862C87.2616 51.4862 88.2992 51.2127 89.1546 50.6659C90.0239 50.105 90.6689 49.3338 91.0896 48.3523H92.8143C92.2814 49.7545 91.4261 50.8412 90.2483 51.6124C89.0704 52.3836 87.6682 52.7692 86.0417 52.7692C84.6956 52.7692 83.4757 52.4537 82.382 51.8227C81.2883 51.1777 80.4259 50.2873 79.795 49.1515C79.164 48.0158 78.8485 46.7257 78.8485 45.2815ZM103.425 51.4441H108.704V52.643H101.953V37.941H103.425V51.4441ZM123.614 52.7902C122.254 52.7902 121.02 52.4747 119.913 51.8437C118.805 51.1987 117.928 50.3083 117.283 49.1726C116.652 48.0228 116.337 46.7257 116.337 45.2815C116.337 43.8372 116.652 42.5472 117.283 41.4115C117.928 40.2617 118.805 39.3713 119.913 38.7403C121.02 38.0953 122.254 37.7728 123.614 37.7728C124.988 37.7728 126.229 38.0953 127.337 38.7403C128.445 39.3713 129.314 40.2617 129.945 41.4115C130.576 42.5472 130.892 43.8372 130.892 45.2815C130.892 46.7257 130.576 48.0228 129.945 49.1726C129.314 50.3083 128.445 51.1987 127.337 51.8437C126.229 52.4747 124.988 52.7902 123.614 52.7902ZM123.614 51.5072C124.708 51.5072 125.69 51.2548 126.559 50.75C127.428 50.2452 128.115 49.5231 128.62 48.5836C129.125 47.6302 129.377 46.5294 129.377 45.2815C129.377 44.0335 129.125 42.9398 128.62 42.0004C128.115 41.0609 127.428 40.3388 126.559 39.834C125.69 39.3292 124.708 39.0768 123.614 39.0768C122.521 39.0768 121.539 39.3292 120.67 39.834C119.8 40.3388 119.113 41.0609 118.609 42.0004C118.104 42.9398 117.851 44.0335 117.851 45.2815C117.851 46.5294 118.104 47.6302 118.609 48.5836C119.113 49.5231 119.8 50.2452 120.67 50.75C121.539 51.2548 122.521 51.5072 123.614 51.5072ZM141.2 37.941V47.1955C141.2 48.6538 141.543 49.7334 142.23 50.4345C142.931 51.1356 143.885 51.4862 145.091 51.4862C146.297 51.4862 147.236 51.1426 147.909 50.4556C148.596 49.7545 148.94 48.6678 148.94 47.1955V37.941H150.412V47.1744C150.412 49.0394 149.914 50.4415 148.919 51.381C147.937 52.3205 146.654 52.7902 145.07 52.7902C143.485 52.7902 142.195 52.3205 141.2 51.381C140.218 50.4415 139.727 49.0394 139.727 47.1744V37.941H141.2ZM164.254 37.941C165.881 37.941 167.276 38.2355 168.44 38.8244C169.604 39.4133 170.494 40.2617 171.111 41.3694C171.728 42.4771 172.036 43.7952 172.036 45.3236C172.036 46.8379 171.728 48.149 171.111 49.2567C170.494 50.3504 169.604 51.1917 168.44 51.7806C167.276 52.3555 165.881 52.643 164.254 52.643H159.901V37.941H164.254ZM164.254 51.4231C166.302 51.4231 167.858 50.8902 168.924 49.8246C170.003 48.7449 170.543 47.2446 170.543 45.3236C170.543 43.3885 170.003 41.8812 168.924 40.8015C167.858 39.7078 166.302 39.1609 164.254 39.1609H161.373V51.4231H164.254Z" fill="white"/>
<path d="M35.67 22.1313H3.81688C2.56206 21.3239 0.515734 20.2475 1.21071 15.9417C1.90569 11.636 6.23 10.7389 8.45007 11.636C6.23 9.66248 7.0022 4.10086 12.5041 1.67887C17.2434 -0.407407 21.867 3.47295 22.9288 7.86842C24.4732 6.34346 28.7203 5.17732 31.616 8.13753C34.1105 10.6876 32.9674 15.1344 30.7473 16.7491C32.3882 16.1211 38.1025 14.8115 38.5658 17.8255C39.0291 20.8395 36.8283 21.9519 35.67 22.1313Z" stroke="#25B8B8" stroke-width="1.50234"/>
</svg>
