<?xml version="1.0" encoding="UTF-8"?>
<svg xmlns="http://www.w3.org/2000/svg" xmlns:xlink="http://www.w3.org/1999/xlink" width="17px" height="17px" viewBox="0 0 17 17" version="1.1">
<g id="surface1">
<path style=" stroke:none;fill-rule:nonzero;fill:rgb(13.72549%,32.156863%,45.882353%);fill-opacity:1;" d="M 0 8.5 C 0 3.804688 3.804688 0 8.5 0 C 13.195312 0 17 3.804688 17 8.5 C 17 13.195312 13.195312 17 8.5 17 C 3.804688 17 0 13.195312 0 8.5 Z M 0 8.5 "/>
<path style=" stroke:none;fill-rule:nonzero;fill:rgb(96.862745%,96.862745%,96.862745%);fill-opacity:1;" d="M 13.734375 5.808594 C 13.648438 5.644531 13.230469 5.261719 12.523438 5.609375 C 11.820312 5.957031 12.160156 6.71875 12.160156 6.71875 C 12.421875 7.253906 12.570312 7.859375 12.570312 8.5 C 12.570312 10.75 10.75 12.570312 8.5 12.570312 C 6.25 12.570312 4.429688 10.75 4.429688 8.5 C 4.429688 6.394531 6.023438 4.664062 8.074219 4.453125 L 8.074219 5.507812 C 8.074219 5.507812 8.070312 5.570312 8.136719 5.609375 C 8.199219 5.648438 8.265625 5.609375 8.265625 5.609375 L 11.644531 3.617188 C 11.644531 3.617188 11.71875 3.578125 11.71875 3.5 C 11.71875 3.4375 11.644531 3.390625 11.644531 3.390625 L 8.277344 1.414062 C 8.277344 1.414062 8.199219 1.359375 8.132812 1.382812 C 8.0625 1.410156 8.074219 1.503906 8.074219 1.503906 L 8.074219 2.632812 C 5.023438 2.851562 2.617188 5.394531 2.617188 8.5 C 2.617188 11.75 5.25 14.382812 8.5 14.382812 C 11.75 14.382812 14.382812 11.75 14.382812 8.5 C 14.382812 7.53125 14.148438 6.617188 13.734375 5.808594 Z M 13.734375 5.808594 "/>
</g>
</svg>
